<?xml version="1.0" encoding="utf-8"?>
<!-- Generator: Adobe Illustrator 28.0.0, SVG Export Plug-In . SVG Version: 6.00 Build 0)  -->
<svg version="1.1" id="Camada_3" xmlns="http://www.w3.org/2000/svg" xmlns:xlink="http://www.w3.org/1999/xlink" x="0px" y="0px"
	 viewBox="0 0 1238.46 577.77" style="enable-background:new 0 0 1238.46 577.77;" xml:space="preserve">
<style type="text/css">
	.st0{fill:none;stroke:#EB384A;stroke-width:4;stroke-linecap:round;stroke-linejoin:round;stroke-miterlimit:10;}
</style>
<path class="st0" d="M163.27,481.89c50.95,1.03,101-3.23,152.54-0.5c0.63-35.5-11.13-0.28,0,0c2.77-95.37,4.9-190.15,3.83-285.99
	c0-7.45-7.45-7.45-12.78-12.78c-2.13-2.13-5.32-8.52,0-10.65c8.52-4.26,21.3-3.19,25.56,7.45c0,3.19-3.19,5.32-6.39,6.39
	c-2.13,2.13-5.32,4.26-6.39,7.45c-5.32,15.97-10.65,29.82-13.84,46.86c0,1.06-2.13,3.19-2.13,4.26c-1.06,3.19-1.06,7.45-2.13,10.65
	c-5.32,19.17-12.78,37.27-15.38,56.16c0.16-0.62,0.21-0.83,0.19-1.45c-0.14,0.47-0.18,0.88-0.19,1.45
	c14.32-36.99,34.55-71.07,42-112.6c1.06-9.58,9.58-13.84,18.1-14.91c9.58,0,20.23,1.06,29.82,0c28.75-4.26,55.37-10.65,84.13-15.97
	c2.13-1.06,4.26-3.19,6.83-4.08c-39.08,0-2.86,2.85,0,0c-15.35-1.25-31.33,0.88-46.24,1.95c-18.1,2.13-36.21,4.26-55.37,6.39
	c-6.39,1.06-13.84,2.13-20.23,3.19c-6.39,1.06-13.84,0-15.97-6.39c-1.06-3.19-2.13-6.39-3.19-9.58
	c-12.78-19.17-24.49-38.34-40.47-53.24c-7.45-14.91-20.23-27.69-32.72-38.81c0.88,4.21,3.45,1.63,0,0c0.77,3.66,2.9,5.79,5.03,7.92
	c17.04,31.95,35.14,59.63,57.5,87.32c8.52,10.65,10.65,22.36,10.65,35.14c5.32,94.78,5.32,188.49,6.39,282.2
	c0,1.06,1.06,2.13,2.13,2.13c52.18,0,104.36,1.06,156.54,0c2.13,0,1.06-4.26,2.13-5.32c3.19-78.8,5.32-157.6,1.06-236.41
	c0-2.13-3.19-4.26-6.39-5.32c-6.39-3.19-5.32-11.71,1.06-12.78c7.45-2.13,15.97,2.13,17.04,9.58c2.13,6.39-5.32,3.19-8.52,1.06
	c-9.58-8.52-20.23-13.84-31.95-14.91c-22.36-2.13-43.66-3.19-65.69-2.51c2.78,1.56,5.59-1.82,0,0c30.55,7.84,61.43,12.1,93.38,17.42
	c9.58,2.13,17.04-3.19,22.36-10.65c8.52-14.91,17.04-28.75,27.69-42.6c9.58-13.84,15.97-27.69,27.37-39.27
	c-0.28,0.95-11.29,10.97,0,0c-0.28,0.95-2.12,4.89-3.54,4.7c-1.18-0.16,3.1-4.28,3.54-4.7c-6.57,14.6-13.75,28.9-21.5,42.91
	c-10.13,16.6-23.97,31.51-35.69,48.55c-1.06,2.13,0,4.26,0,6.39c4.26,12.78,10.65,24.49,14.91,37.27
	c4.26,13.84,7.45,27.69,12.78,41.53c3.19,10.65,5.32,22.36,6.33,32.87c-1.41-1.83,0.7-3.47,0,0
	c-11.79-28.82-25.68-56.89-36.06-86.27c-2.65-7.5-4.73-15.28-3.59-23.3c-1.13,0-2.27,0-3.4,0c0.51,80.96-0.56,160.82,5.83,241.76
	c48.98,0,96.9-2.13,145.81-1.05c-1.69-0.18-3.46-0.11-5.16-0.04c1.71,0.07,3.44,0.04,5.16,0.04c0.08-66.04,0.08-132.06-0.41-198.23
	c-3.56,0.73,0,14.64,0,0c-3.56,0.73-7.15-0.09-8.99-3.43c-1.12-2.02-2.05-5.03,0.23-6.49c6.31-4.05,15.96,1.55,17.26,8.22
	c-4.22,0.14-5.25-2.04-6.54-5.65c-7.85-25.53-15.31-52.15-18.5-78.77c-4.26-5.32-2.13-11.71-4.32-18.22
	c0.86,1.31,2.19,2.96,2.33,4.54c-1.41-0.74-2.46-2.95-2.33-4.54c8.58,16.09,14.97,32.06,19.23,49.1
	c4.26,14.91,10.65,30.88,3.19,44.73c-20.23,20.23-37.27,43.66-49.07,70.38c3.7-1.89,0.36-3.06,0,0c3.28-3.29,6.48-6.48,8.61-10.74
	c12.78-15.97,22.36-30.88,35.14-46.86c2.13-2.13,4.26-4.26,6.39-4.26c30.88,3.19,61.76,9.58,92.84,10.2c-2.74-1.71-4.8,1.71,0,0
	c-16.17-5.94-33.21-9.13-50.25-12.33c-9.58-1.06-18.1-2.13-27.69-3.19c-3.19,0-6.39-1.06-9.58,1.06c-3.19,3.19-2.13,7.45-2.13,10.65
	c0,63.89,2.13,128.85,5.32,192.74c19.17,1.06,38.34,1.06,57.5,1.06c154.41,2.13,307.75-1.06,462.24,1.23"/>
</svg>
