<?xml version="1.0" encoding="utf-8"?>
<!-- Generator: Adobe Illustrator 28.0.0, SVG Export Plug-In . SVG Version: 6.00 Build 0)  -->
<svg version="1.1" id="Ebene_2" xmlns="http://www.w3.org/2000/svg" xmlns:xlink="http://www.w3.org/1999/xlink" x="0px" y="0px"
	 viewBox="0 0 2584.57 1257.71" style="enable-background:new 0 0 2584.57 1257.71;" xml:space="preserve">
<style type="text/css">
	.st0{fill:none;stroke:#EB0337;stroke-width:4;stroke-miterlimit:10;}
	.st1{fill:none;stroke:#EB0337;stroke-width:4;stroke-linecap:round;stroke-linejoin:round;stroke-miterlimit:10;}
</style>
<g>
	<path class="st0" d="M614.18,1056.3c-0.3-3.01-0.35-5.41-0.36-6.79c-0.08-22.69,10.81-41.22,23.24-61.85
		c2.17-3.61,1.75-2.73,2.86-4.65c2.54-4.38,14.27-25.38,14.66-55.06c0.29-21.73-6.1-37.44-13.59-56.13
		c-5.63-14.05-11.63-29.02-20.02-41.47c-4.83-7.16-7.71-15.48-12.16-22.88c-0.81-1.35-2.55-4.21-2.86-8.22
		c-0.4-5.21,1.85-9.35,3.22-11.8c1.46-2.61,2.24-3.11,10.73-12.16c4.31-4.6,6.13-6.62,7.87-10.01c2.78-5.42,2.18-8.13,1.79-9.3
		c-0.24-0.71-1.2-3.57-3.93-4.29c-1.98-0.52-4.4,0.2-5.36,1.79c-0.52,0.86-1.06,2.73,1.79,7.51c7.02,11.77,19.82,16.39,27.89,19.31
		c1.41,0.51,5.12,1.79,9.3,0.72c1.36-0.35,3.41-0.88,4.29-2.5c1.67-3.07-2-7.83-2.86-8.94c-4.14-5.37-12.16-9.71-19.66-7.87
		c-4.26,1.05-6.98,3.75-8.22,5.01c-17.64,17.92-26.02,36.09-41.12,51.13c-1.88,1.88-5.63,5.46-10.37,11.08
		c-6.04,7.17-9.73,12.98-11.08,15.02c-6.84,10.35-15.6,18.09-27.89,28.96c-26.01,23-49.84,36.45-67.57,49.7
		c-10.7,7.99-16.05,11.99-16.45,12.51c-0.57,0.76-1.54,2.15-3.22,2.5c-1.93,0.41-4-0.73-11.8-8.94c-3.48-3.67-7.76-6.63-10.73-10.73
		c-0.6-0.83-2-2.84-4.29-3.22c-1.47-0.25-3.37,0.17-4.29,1.43c-1.11,1.52-0.23,3.47,0,5.36c0.55,4.4-2.43,8.18-5.01,11.44
		c-4.91,6.22-15.27,9.78-26.81,8.22c2.63,0.77,6.43,2.08,10.73,4.29c10.2,5.26,15.45,11.68,16.09,11.08
		c0.58-0.55-2.93-6.84-9.3-11.8c-6.29-4.89-12.05-5.9-11.8-7.51c0.2-1.29,3.95-1.14,8.94-2.15c6.75-1.36,7.63-3.18,23.6-10.37
		c8.46-3.81,11.21-4.65,14.66-3.93c0.78,0.16,5.98,1.24,8.22,5.36c3.4,6.23-2.37,14.96-5.72,20.02c-4.38,6.62-9.09,10.5-16.45,16.45
		c-6.47,5.23-9.85,7.22-17.88,12.87c-11.4,8.03-16.93,12.27-21.45,16.09c-2.91,2.46-6.08,4.62-8.94,7.15
		c-0.77,0.68-2.84,2.11-6.97,4.96c-0.34,0.23-1.4,0.95-2.95,1.34c-1.11,0.28-2.88,0.72-4.02-0.27c-0.97-0.84-0.95-2.25-0.94-2.68
		c0.04-2.25,1.85-3.66,2.15-3.89c11.52-10.88,19.37-18.11,21.45-19.57c0.08-0.05,1.33-0.93,2.28-2.55c0.38-0.65,1.26-2.13,0.67-2.95
		c-0.44-0.61-1.48-0.55-1.74-0.54c-1.36,0.08-2.32,1-2.55,1.21c-3.97,3.67-27.14,17.26-32.45,20.11c-0.24,0.13-2.38,1.27-5.36,2.41
		c-1.82,0.7-3.84,1.36-6.3,1.74c-2.06,0.32-3.21,0.26-4.29,0c-1.07-0.26-2.29-0.56-2.95-1.61c-1-1.6,0.15-3.8,0.4-4.29
		c1.08-2.08,2.97-3.08,3.49-3.35c12.17-6.45,20.24-12.19,28.42-15.42c1.39-0.55,2.65-1.42,4.02-2.01c0.98-0.42,1.82-0.74,2.28-1.61
		c0.35-0.67,0.47-1.68,0-2.15c-0.23-0.22-0.76-0.5-2.28,0c-8.94,2.93-30.57,16.76-30.57,16.76c-4.11,2.48-7.33,4.35-9.12,5.36
		c-0.35,0.2-1.38,0.78-2.82,1.34c-1.49,0.59-2.4,0.76-2.68,0.8c-1.41,0.24-2.13,0.37-2.95,0c-1-0.46-1.67-1.45-1.88-2.41
		c-0.15-0.72-0.1-1.7,0.8-3.22c2.2-3.68,7.38-7,8.85-7.91c16.93-11.05,29.02-18.99,30.84-20.38c0.94-0.72,1.61-1.01,2.95-1.61
		c1.69-0.75,2.19-0.69,2.55-0.54c0.74,0.33,1.42,1.37,1.07,2.41c-0.29,0.87-1.18,1.44-2.15,1.34c-12.65,6.08-25.3,12.16-37.94,18.23
		c-0.55,0.29-1.47,0.7-2.68,0.8c-0.92,0.08-2.07,0.18-2.95-0.54c-0.97-0.78-1.05-2.1-1.07-2.55c-0.15-2.55,1.73-4.63,2.55-5.5
		c5.34-5.66,13.26-10.3,14.21-10.86c7.27-4.27,3.86-2.54,11.93-7.24c7.41-4.32,7.75-4.3,16.09-9.12
		c7.89-4.56,12.65-7.49,17.43-12.87c0.72-0.81,1.27-1.37,2.01-2.41c0.33-0.46,0.56-0.82,0.67-1.34c0.02-0.1,0.29-1.43-0.4-2.15
		c-0.65-0.67-1.84-0.47-2.28-0.4c-0.95,0.16-8.96,1.34-9.92,1.61c-0.42,0.12-0.1,0.02-11.93,1.34c-2.24,0.25-5.73,0.64-9.92-0.27
		c-1.39-0.3-2.61-0.69-3.62-1.74c-1.2-1.24-2.41-3.76-1.21-5.9c0.81-1.43,2.48-1.88,4.16-2.28c6.77-1.61,12.57-2.42,15.15-2.82
		c3.82-0.58,3.54-0.69,9.39-1.61c3.23-0.51,6.45-0.97,8.31-1.21c8.14-1.04,15.21-0.98,18.64-0.94c13.02,0.15,15.01,1.82,21.32,0
		c3.9-1.12,6.81-2.82,9.79-4.83c13.54-9.14,24.57-22.24,30.57-29.63c5.06-6.23,15.49-19.06,25.34-32.85
		c1.51-2.12,4.64-6.54,9.52-11.93c2.82-3.12,6.22-6.56,13.14-12.6c8.08-7.05,9.85-7.95,20.38-16.63
		c14.01-11.54,17.06-15.03,18.5-16.76c2.51-2.99,6.77-8.14,10.46-15.82c3.61-7.52,2.24-8.23,6.44-18.77
		c3.43-8.62,5.7-14.14,10.99-19.57c4.8-4.93,9.79-7.91,9.79-7.91c2.24-1.34,4.83-2.61,9.39-5.5c5.28-3.34,5.45-3.94,5.36-4.16
		c-0.25-0.57-2.97,0.43-7.91,1.07c-5.37,0.69-8.05,1.04-9.79-0.13c-4.09-2.76-1.48-10.67-4.02-11.53c-1.84-0.63-4.65,3.04-8.58,8.18
		c-3.08,4.02-5.24,6.85-7.37,11.26c-3.31,6.86-2.34,8.84-5.09,15.82c-2.47,6.25-4.36,11.06-8.45,14.21
		c-10.34,7.99-28.35,0.5-29.09,3.22c-0.22,0.82,1.45,1.34,3.49,3.62c5.1,5.73,4.72,13.91,4.56,17.43c-0.06,1.35-0.4,6.82-3.08,12.47
		c-8.23,17.33-32.84,24.4-50.01,24.4c-6.8,0-14.63-1.11-14.61-1.61c0.01-0.37,4.32-0.13,10.19-0.94c5.26-0.72,13.65-1.88,21.85-7.51
		c6.19-4.25,9.45-9.11,10.32-10.46c1.81-2.8,4.83-7.62,5.09-14.35c0.12-3.08,0.31-7.81-2.95-11.8c-0.64-0.78-4.28-5.22-9.65-4.69
		c-4.02,0.4-8.49,3.52-8.71,7.64c-0.24,4.43,4.57,7.38,5.23,7.78c1.1,0.67,4.42,2.46,12.2,1.21c2.49-0.4,6.65-1.31,18.77-7.64
		c7.49-3.91,11.3-5.93,14.88-8.98c3.01-2.57,7.1-6.14,9.79-11.93c2.62-5.65,2.63-10.7,2.68-12.07c0.27-7.48,5.93-22.31,28.42-54.17
		c-0.03,1.71-0.2,4.03-0.8,6.7c-0.33,1.47-1.18,4.74-3.49,8.98c-2.84,5.24-5.73,10.55-11.66,13.27c-1.63,0.75-7.18,3.29-10.73,0.67
		c-3.63-2.69-2.72-9-2.55-10.19c0.98-6.8,6.02-10.77,5.5-11.26c-0.5-0.46-5.17,2.98-9.25,8.04c-1.99,2.47-5.04,6.33-6.57,12.2
		c-0.83,3.2-1.58,6.05-0.54,9.39c1.71,5.48,6.91,8.02,7.78,8.45c9.1,4.45,20.34-2.69,24.13-6.17c2.27-2.08,4.56-4.69,4.56-4.69
		c2.07-2.37,2.61-3.34,4.42-5.5c1.08-1.29,3.45-4.1,5.9-6.03c4.07-3.21,8.44-4.03,11.4-4.56c11.47-2.04,22.57,1.95,24.54,2.68
		c22.05,8.18,41.02,21.78,45.18,24.8c23.37,16.95,23.35,21.05,42.23,32.31c12.05,7.18,25.05,13.27,24.67,14.08
		c-0.19,0.42-3.69-1.03-14.88-4.16c-5.38-1.51-7.01-1.85-7.78-2.01c-5.69-1.17-9.23-1.9-13.41-1.47
		c-1.07,0.11-11.13,1.28-17.43,9.12c-2.16,2.69-1.45,3.14-4.83,8.98c-1.17,2.02-4.46,7.72-8.98,12.6c-3.16,3.41-9,9.73-18.77,12.47
		c-10.1,2.83-18.58,0.22-21.32-0.67c-12.45-4.03-20.96-13.87-20.11-15.15c0.42-0.64,3.04,1.09,9.79,3.22
		c4.04,1.28,11.47,3.57,19.98,3.75c6.04,0.13,12.83,0.28,19.44-3.62c7.71-4.54,10.85-12.03,11.93-14.61
		c7.67-18.29-2-43.79-18.1-58.72c-15.79-14.65-34.99-16.57-42.37-16.89c1.65-0.57,3.9-1.46,6.44-2.82
		c2.96-1.58,9.56-5.11,13.54-11.13c6.55-9.91,3.34-22.6,2.82-24.54c-3.53-13.1-5.36-17.3-5.36-17.3c-0.58-1.33-2.06-4.61-0.67-7.24
		c0.18-0.34,1.14-2.06,2.95-2.55c2.02-0.55,3.15,0.97,5.09,0.27c0.09-0.03,1.84-0.69,2.28-2.15c0.78-2.61-3.41-5.29-2.68-6.44
		c0.61-0.95,3.97,0.13,4.83,0.4c1.54,0.49,2.34,0.75,3.08,1.47c2.1,2.06,1.57,5.83,0.8,7.91c-0.23,0.63-1.11,2.92-3.49,4.42
		c-0.72,0.45-1.99,1.24-3.75,1.21c0,0-2.26-0.04-4.02-1.61c-2.52-2.24-2.08-6.48-1.88-9.92c0.05-0.83-0.33-7.97-1.07-22.26
		c-0.3-5.66-0.69-10.07-0.94-12.74c-0.95-10.43-1.59-12.33-1.88-17.3c-0.21-3.69-0.6-11.62,1.74-20.51
		c3.55-13.46,11.52-22.07,17.03-28.02c4.92-5.31,11.98-11.6,13.01-10.73c0.74,0.63-1.59,5.08-4.29,8.45
		c-6.8,8.49-16.8,11.3-26.14,13.81c-7.92,2.12-17.03,2.95-17.03,2.95c-3.08,0.35-4.07,0.36-6.3,0.8c-1.9,0.38-6.76,1.49-14.08,5.5
		c-8.32,4.55-13.94,9.64-15.82,11.4c-4.15,3.88-13.11,12.44-18.9,26.81c-0.87,2.15-6.76,17.25-4.69,35.66
		c0.49,4.32,1.4,8.73,2.15,12.33c1.62,7.84,2.56,9.97,5.63,21.99c2.26,8.86,3.39,13.29,4.16,17.7c1.65,9.5,1.95,16.91,2.68,16.89
		c0.5-0.01,0.17-3.48,1.74-8.18c1.51-4.52,3.51-6.36,6.3-10.73c0,0,3.7-5.78,6.17-12.74c2.33-6.56,1.67-10.91,1.21-22.52
		c-0.42-10.49-0.74-18.75-0.13-27.35c1.05-14.85,4.74-28.45,6.03-28.29c0.7,0.09,0.28,4.17,0.8,13.27
		c0.32,5.6,1.01,16.63,3.89,28.83c2.15,9.09,3.27,9.32,5.09,18.64c1.42,7.25,2.22,11.49,1.74,17.3c-0.64,7.8-3.24,14.27-4.83,18.23
		c-2.87,7.15-5.58,10.96-4.83,11.53c1.12,0.85,8.17-6.73,9.52-8.18c5.67-6.09,11.35-12.19,15.95-20.65
		c7.71-14.16,8.38-27.56,8.85-36.87c0.86-17.12-2.38-33.9-3.75-41.03c-0.55-2.83-1.17-7.07-2.41-15.55
		c-1.32-8.99-2.04-14.77-0.4-21.18c0.72-2.84,2.03-6.27,4.96-8.98c0.63-0.58,1.71-1.56,3.35-2.28c3.51-1.53,7.02-0.7,9.25-0.13
		c9.05,2.31,16.72,5.38,22.93,7.64c5,1.82,5.35,1.53,7.37,2.55c2.54,1.27,5.62,4.07,11.8,9.65c0.82,0.74,2.17,1.98,3.22,4.02
		c0.8,1.55,2.06,4.81,0.94,5.77c-1.01,0.86-3.65-0.39-5.23-1.74c-3.59-3.07-4.32-8.85-3.22-9.39c0.95-0.46,4.28,11.37,10.59,13.27
		c1.8,0.54,3.89,0.8,3.89,0.8c2.15,0.27,2.69,0.05,5.63,0.13c5.51,0.15,6.97,0.99,7.51,1.34c0.69,0.44,1.69,1.09,2.28,2.28
		c2.07,4.18-3.29,10.49-7.24,12.07c-1.31,0.52-1.74,0.24-1.88,0.13c-0.75-0.61-0.24-2.68,0.67-4.02c1.4-2.06,4.39-3.3,5.5-2.41
		c1.08,0.87-0.6,2.99,0.67,5.77c0.74,1.61,2.05,2.51,2.68,2.95c2.92,2.01,5.27,1.05,6.03,2.55c0.82,1.61-1.4,3.69-0.54,4.69
		c0.78,0.9,2.82-0.47,4.02,0.54c0.8,0.68,0.5,1.81,0.54,3.89c0.03,1.67,0.1,5.43,2.01,8.18c1.16,1.68,1.94,1.43,3.89,3.89
		c1.2,1.52,1.87,2.25,2.15,3.35c0.21,0.85,0.4,2.63-1.47,5.63c-2.76,4.42-7,6.68-8.85,7.64c-11.36,5.9-17.04,8.85-24.13,9.92
		c-2.56,0.39-7.88,1.15-14.48,0.27c-7.25-0.97-10.88-1.46-13.41-2.68c-0.29-0.14-2.24-1.1-4.83-1.07c-0.59,0.01-3.06,0.03-3.35,0.94
		c-0.39,1.2,3.15,3.49,5.23,4.56c6.72,3.45,14.02,2.28,16.76,1.74c17.57-3.43,27.6-16.1,29.76-14.08c1.41,1.32-2,7.47-3.22,9.65
		c-2.05,3.7-3.8,5.44-5.36,7.51c-4.43,5.86-5.63,11.98-6.7,17.43c-1.76,8.97-0.72,16.05-0.13,19.98
		c4.08,27.57,21.4,48.01,24.54,51.62c4.18,4.81,9.76,9.91,20.92,20.11c7.94,7.26,11.9,10.89,16.49,14.21
		c4.6,3.34,7.11,4.68,11.26,8.58c3.89,3.66,7.17,6.8,9.65,12.07c0.9,1.92,3.47,7.54,2.95,14.88c-0.22,3.09-1.09,5.63-2.82,10.59
		c-3.04,8.71-4.96,11.45-7.11,17.3c-2.15,5.84-2.85,10.25-3.89,16.76c-4.88,30.52-1.88,63.42-1.88,63.42
		c2.06,22.55,3.45,37.84,7.78,50.81c2.54,7.61,2.86,11.78,3.49,20.11c0.44,5.8,0.23,9.64-1.47,13.68c-0.36,0.86-2.5,5.76-6.97,9.12
		c-7.32,5.49-16.86,3.8-24.8,2.28c-7.93-1.52-8.69-2.98-35.4-14.75c-11.01-4.85-13.84-5.91-18.64-9.25
		c-2.72-1.89-6.95-5.42-15.42-12.47c-7.23-6.02-8.93-7.58-12.6-8.98c-3.12-1.19-8.95-3.41-15.02-0.8
		c-6.72,2.89-9.03,9.68-9.52,11.13c-3.11,9.18,1.78,17.31,2.82,19.04c4.3,7.15,10.97,10,14.88,11.66c4.1,1.75,7.72,2.45,13.01,3.08
		c10.81,1.3,19.93,1.28,37.14,0.67c7.27-0.26,13.17-0.47,21.45-0.94c8.67-0.49,16.88-0.96,27.62-2.01
		c7.64-0.75,15.87,0.87,22.93-2.15c0.75-0.32,3.21-1.43,5.23-0.4c1.95,1,2.57,3.55,2.95,5.09c0.77,3.18-0.11,4.42,0.54,8.18
		c0.31,1.8,0.73,2.79,1.07,3.89c0.81,2.6,1.17,5.64-0.22,17.7c-0.32,2.81-0.79,6.45-1.43,10.73"/>
	<g>
		<path class="st1" d="M711.92,1069.27c-0.03-0.01-139.65-22.97-252.68-22.97c-64.65,0-142.12,11.55-221.1,27.71"/>
		<path class="st1" d="M841.04,956.29"/>
		<path class="st1" d="M1059.67,1000.51c-0.89,2.22-343.44,67.51-346.11,67.95"/>
		<path class="st1" d="M1001.86,1002.28"/>
		<path class="st1" d="M2302.41,1043.49c-121.48-20.62-276.84-0.18-276.84-0.18l-9.57-489.17c0,0,118.01,147.37,148.4,178.44
			c0.9,0.92,2.14,1.29,3.26,0.39c1.12-0.89,0.67-1.79-1.79-5.37C2007,496.52,2027.43,526.48,1998.33,488.95
			c-3.19-4.12-12.9,3.98-10.39,8.15c2.78,4.62,12.96,22.93,18.34,45.2c3.22,4.4,8.26,10.51,8.26,10.51s-8.83-7.51-9.69-10.57
			c-0.85-3.03-7.46-28.03-17.93-43.97c-0.33-0.5-5.55-4.35,1.29-9.76c10.3-8.15,14.82-1.19,12.36,0.73l16.03,20.81l0.12-4.65
			l19.83,5.75l-18.24,0.98l1.59,1.47c0,0,18.36-0.73,19.09-1.22c0.38-0.14,3.63-5.89,3.63-12.37c0-4.44-1.65-10.47-2.89-11.75
			c-0.77-1.11-25.62-17.3-30.42-20.41c-1.07-0.7-1.65-0.52-6.18-0.52c2.48,11.86,2.08,15.52,0.86,23.62l-1.47-2.94
			c0,0,1.71-12.24-3.79-17.99c-0.37,0.61-0.73,1.59-0.73,1.59s-10.67-5.77-14.22-5.28c0-1.1,0.86-2.33,0.86-2.33
			s5.78,1.36,11.9,4.42c2.2,0.12,5.26,0.12,5.26,0.12l-0.24-1.71h-4.65c0.16-2.26,29.31-38.79,30.54-40.02
			c1.32-5.92,63.95-212.89,69.4-230.91c0.64-2.1,0.82-6.15-0.87-6.52c-4.54-1.01-8.25,11.53-62.39,142.81
			c0,0-32.13,77.52-34.41,83.53c-1.87,6.63-14.73,46.08-15,46.55c0,0-0.13,1.82-2.49,1.48c-0.34,0.67-0.61,2.09-0.61,2.09
			c-10.85,1.6-17.86,13.8-7.91,24.21c-0.74,0.4-2.29,1.35-3.44,0.07s-5.11-8.1-2-14.3c-0.61,0-1.82,0.47-2.09,2.5
			c-3.1,0.13-23.94,0.42-39.35-2.34c-129.03,36.56-128.28,36.13-236.88,73.14c-2.88,1.34-4.64,5.21,5.17,2.76
			c94.98-23.74,180.38-36.84,274.11-60.91c0,0,1.97,2.44,4.05,2.16c0.79-0.11,0.4-0.98,1.22-1.8c2.19,2.39,4.1,5.76,10.38,6.89
			c1.15,0.68,1.67,1.1,1.67,1.1l-10.33,0.26l-1.19-5.37c0,0-1.71,5.05,0.11,6.67c0.94,0.83,5.53,4.27,7.49,4.92
			c6.47,2.13,2.44,1.09,7.57,0.35c0.47,0.37,0.81,1.24,0.81,1.24s-2.95,0.43-3.37,1.11l-7.71,535.13
			c-443.26,25.63-610.98-103.16-914.19-44.05c-5.38,1.05-2.13,0.26-5.52,0.92"/>
	</g>
</g>
</svg>
