<?xml version="1.0" encoding="utf-8"?>
<!-- Generator: Adobe Illustrator 28.0.0, SVG Export Plug-In . SVG Version: 6.00 Build 0)  -->
<svg version="1.1" id="Camada_1" xmlns="http://www.w3.org/2000/svg" xmlns:xlink="http://www.w3.org/1999/xlink" x="0px" y="0px"
	 viewBox="0 0 1080 1080" style="enable-background:new 0 0 1080 1080;" xml:space="preserve">
<style type="text/css">
	.st0{fill:#EB384A;}
	.st1{fill:#FFFFFF;}
</style>
<path class="st0" d="M992.8,580.8c-1.1,0.1-2.2,0.2-3.5,0.4c-0.3-0.9-0.5-1.7-0.8-2.5c-2.1-6.9-4.8-13.5-8.9-19.6
	c-3.8-5.7-8.5-10.6-14.7-13.8c-8.9-4.6-17.8-4.4-26.8-0.2c-7.6,3.6-13.7,9.1-19,15.5c-2.3,2.8-4.3,5.8-6.3,8.7
	c-0.5,0.7-0.9,1.8-0.8,2.6c0.3,9.6-1.1,19-3.1,28.3c-6.4,29.3-16.6,57.2-29.7,84.1c-12.7,26-27.9,50.3-46.2,72.7
	c-26.8,32.8-58.6,59.7-96.1,79.8c-22.8,12.2-46.8,21.4-71.8,27.9c-13.8,3.6-27.7,6.2-41.9,7.9c-13.3,1.6-26.6,2.3-40,2
	c-49.3-1-95.2-14-138.2-37.9c-24.5-13.6-46.9-30.2-67.2-49.6c-23.9-22.8-44.3-48.3-60.3-77.2c-9.7-17.5-16.9-36-22.5-55.1
	c-4.1-14.1-7.2-28.5-9.5-43c-2-13.4-3.2-26.8-3.7-40.3c-0.5-12.6-0.2-25.3,0.8-37.9c3.3-41.2,13.8-80.4,32.7-117.2
	c13.6-26.5,30.9-50.4,51.6-71.8c24.3-25.1,51.9-46,82.6-62.7c25.6-13.9,52.7-23.7,81.3-29.2c20.7-4,41.6-5.7,62.7-5.2
	c26.5,0.5,52.5,4.4,78.2,10.8c22.7,5.6,44.7,13.4,66.5,21.6c5.5,2.1,11.2,3.8,16.8,5.6c0.7,0.2,1.5,0.2,2.9,0.4
	c-0.9-1.4-1.4-2.4-2.1-3.2c-3.1-3.8-6.9-6.8-10.8-9.8c-11.4-8.7-23.8-15.9-36.6-22.3c-29.4-14.8-60.3-25.6-92.4-32.7
	c-15.1-3.4-30.3-5.9-45.6-7.5c-12.7-1.3-25.5-2.3-38.3-2.1c-9.5,0.1-19,0.2-28.5,0.7c-12.3,0.7-24.5,2.1-36.7,4.1
	c-24.6,3.9-48.6,10.1-72,18.6c-26.6,9.7-51.8,22.4-75.8,37.3c-18.5,11.5-36.1,24.2-53.7,37c-13.5,9.8-26.9,19.6-41,28.5
	c-13.9,8.8-28.3,16.4-44,21.7c-15.9,5.3-32.1,7.6-48.9,6.9c-14.4-0.6-28.4-3.4-42.1-7.5c-0.4-0.1-0.8-0.2-1.1-0.4
	c-0.1-0.1-0.2-0.2-0.5-0.5c0.3-0.9,0.6-1.8,0.9-2.9c3.8,1,7.4,2.1,11,3c12.1,3.1,24.3,4.9,36.7,5c16.5,0.1,32.4-2.9,47.8-8.7
	c14.8-5.6,28.5-13.3,41.8-21.8c16.1-10.4,31.5-21.9,47-33.2c17.4-12.6,35.1-24.8,53.7-35.8c33.9-20.1,69.8-35,108.1-44.3
	c15.3-3.7,30.8-6.5,46.4-8.4c14.5-1.7,29.1-2.7,43.8-2.8c11.2-0.1,22.4,0.3,33.5,1.1c22.5,1.7,44.8,5.2,66.7,10.6
	c26.9,6.6,52.8,15.6,77.8,27.6c15.5,7.4,30.4,15.7,44.1,26.1c3.8,2.9,7.3,6.3,10.7,9.5c1.1,1.1,2,2.5,2.8,3.9c1.8,3.5,0,6.2-4,5.7
	c-2.3-0.2-4.6-0.8-6.8-1.5c-7.5-2.6-15-5.4-22.5-8.2c-22.2-8.3-44.7-15.6-67.8-20.6c-12.2-2.7-24.5-4.8-36.9-6.1
	c-9.5-1.1-19.1-1.7-28.7-2c-13.9-0.4-27.8,0.3-41.6,1.9c-35.8,4.2-69.6,15-101.3,32.2c-26.2,14.2-50,31.6-71.6,52.1
	C360,355.4,343,376.1,329,399.1c-15.2,24.9-26.4,51.6-33.8,79.9c-3.8,14.4-6.4,29-8.1,43.8c-2.1,18.3-2.6,36.7-1.6,55.1
	c1.5,28.6,6.5,56.5,15.2,83.7c4,12.7,8.9,25.2,14.9,37.1c11,21.9,24.7,42,40.6,60.6c26.2,30.5,56.8,55.7,92.1,75.2
	c26.9,14.8,55.3,25.4,85.4,31.3c11.3,2.2,22.7,3.9,34.2,4.5c6.9,0.4,13.9,0.8,20.8,0.8c11.8,0.1,23.5-0.8,35.2-2.2
	c27.7-3.4,54.4-10.4,80.3-20.8c36.9-14.8,69.6-36,98.3-63.5c26.3-25.2,47.8-54.1,65.3-86.1c14.4-26.3,25.6-53.8,33.7-82.6
	c2.7-9.6,5-19.3,6.3-29.3c0.4-2.8,0.5-5.7,0.8-8.7c-1.4,0.3-1.5,1.3-1.9,2c-4.2,8.1-7.6,16.6-10.4,25.2
	c-10.7,31.9-25.4,61.9-43.8,90.1c-11.5,17.6-24.4,34.2-38.8,49.6c-24.3,26-52,47.6-84,63.3c-21.1,10.4-43.2,17.9-66.5,21.9
	c-12.7,2.2-25.6,4-38.4,5.7c-8,1.1-16.1,1.6-24.1,2.5c-1,0.1-2,0.6-2.8,1.1c-1,0.6-1.8,0.8-2.9,0.1c-0.7-0.4-1.6-0.7-2.4-0.6
	c-13.6,1-27.2,1.1-40.8,0.7c-26.1-0.8-51.9-4.1-77.1-11.4c-29.9-8.6-57.1-22.3-80.9-42.6c-19.6-16.6-35.4-36.4-48.1-58.7
	c-9.3-16.2-16.6-33.3-22.7-50.9c-6.3-17.9-11.1-36.2-14.4-54.9c-1.9-10.5-3.4-21-4-31.6c-0.6-9.4-1.2-18.8-1.2-28.3
	c0-13.5,0.9-27,2.6-40.4c3.8-30.1,11.8-59,24.2-86.7c13.5-30.2,31.7-57.3,54.5-81.3c23.8-24.9,51.1-44.9,81.9-60.2
	c23.2-11.5,47.5-19.6,73-24.4c14.5-2.7,29.1-4.4,43.8-5c11.7-0.5,23.3-0.2,35,0.6c15.2,1,30.2,3.2,45.1,6.4
	c19,4.1,37.4,9.6,55.1,17.8c5.2,2.4,10.2,5,14.7,8.5c1.2,0.9,2.3,2,3.3,3.1c1,1.1,1.4,2.6,0.8,4c-0.6,1.5-2.1,2-3.6,1.9
	c-3.5-0.3-7-0.5-10.4-1.2c-12.3-2.6-24.5-5.4-36.8-8c-13.8-3-27.8-5.4-41.8-7.2c-14-1.9-28-3.1-42-3.7c-10.8-0.4-21.6-0.5-32.4,0.2
	c-8.4,0.5-16.7,1.3-25.1,2.2c-35.5,3.9-68.3,15.1-98.2,35c-31.2,20.8-57.1,47-78.2,77.9c-18.5,27.1-32.3,56.4-41.1,88
	c-3.7,13.3-6.4,26.9-8.1,40.6c-1.2,10.1-1.8,20.2-1.9,30.4c-0.4,42.4,8.8,82.6,26.7,120.9c12,25.7,28.2,48.5,48.5,68.3
	c16.6,16.2,35.3,29.5,55.8,40.3c25.7,13.5,52.9,22.5,81.4,27.4c16.8,2.9,33.8,4.3,50.9,3.7c3.7-0.1,7.3-0.6,11-1
	c0.5-0.1,1-0.3,1.8-0.5c-0.2-0.9-0.3-1.8-0.5-2.6c-1.4-6.2-2.9-12.4-4.2-18.7c-1-4.6-1.1-9.3-0.9-14.1c0.2-3.7,0.1-7.4,0.2-11
	c0.3-14.1,0.6-28.1,0.9-42.2c0.2-9.8,0.4-19.7,0.5-29.5c0.2-18.2,0.4-36.3,0.5-54.5c0.1-13.4,0.2-26.7,0.2-40.1
	c0-12.5-0.1-25-0.3-37.4c-0.3-16.6-0.7-33.3-1.1-49.9c-0.1-2.9-0.2-5.8-0.4-9.3c-0.9,0.9-1.5,1.4-2,1.9c-8.4,9-16.8,18.1-25.2,27
	c-12.1,12.8-24.7,25.1-37.6,37.1c-4.8,4.5-9.7,8.8-14.5,13.3c-1.4,1.3-2.6,2.8-3.9,4.2c-1.6,1.7-3.1,3.5-4.7,5.1
	c-1.1,1.1-2.2,1.2-3,0.5c-1-0.9-0.5-1.9-0.1-2.9c0.2-0.4,0.4-0.7,0.6-1c1.8-2.2,3.8-4.3,5.4-6.7c3.6-5.3,7.8-9.9,12.2-14.5
	c4.6-4.9,9.5-9.5,14.1-14.4c7.9-8.4,14.7-17.7,21.4-27.1c7.2-10.3,14.6-20.5,21.9-30.7c3.2-4.4,7-8.1,11.8-10.7
	c0.3-0.1,0.5-0.4,1-0.8c-0.7-0.2-1.1-0.4-1.5-0.4c-5.3-0.4-9.6-2.8-13.4-6.3c-3.2-2.9-3.4-11.6,2.8-14.3c1.1-0.5,2.5-0.5,3.7-0.5
	c5.4,0.1,10.7,0.9,15.8,2.8c0.5,0.2,1.1,0.4,1.6,0.5c0.1,0,0.3,0,0.7,0c0-0.5,0.1-1,0-1.5c-3.3-16.5-6.5-33.1-10-49.6
	c-6.6-30.7-13.3-61.4-20-92c-0.2-1.1-0.6-2.2-0.8-3.2c-0.4-1.6,0.1-2.8,1.1-3.1c1-0.3,2,0.3,2.8,1.7c0.2,0.3,0.3,0.6,0.4,0.9
	c4,10.9,8,21.7,12,32.6c3.4,9.2,7,18.4,10.2,27.7c4.6,13.3,7.8,27,10.7,40.8c0.5,2.3,1.1,4.5,1.4,6.8c0.7,5.3,1.4,10.6,1.9,15.9
	c0.8,7.9,1.5,15.8,2.3,23.6c0,0.2,0.1,0.5,0.1,0.7c-0.5,3.3,1.5,4.9,4,6.4c6.3,3.8,13.1,6.3,20.1,8.4c4.7,1.4,9.5,2.7,14.3,4
	c7.1,2,13.8,5,20.6,7.9c3.9,1.7,7.8,2.9,11.9,3.5c4.2,0.6,8.1,1.8,11.7,4c3.4,2.2,7.1,3.3,10.9,4.2c14.1,3.4,27.7,8.3,41.1,13.8
	c0.4,0.1,0.8,0.3,1,0.5c0.4,0.5,0.9,1.2,0.8,1.6c-0.2,0.6-0.8,1.2-1.3,1.5c-0.7,0.3-1.6,0.3-2.4,0.1c-4.1-0.8-8.1-1.7-12.2-2.4
	c-18.8-3.1-37.7-5.4-56.1-10.1c-15.6-3.9-30.9-8.7-45.6-15.4c-3.3-1.5-6.3-3.4-9.5-5.2c-3.8-2.1-7.7-3.1-12-1.9
	c-2.7,0.7-3,1-2.9,3.8c0.3,12,0.6,24,0.9,36c0.1,6,0.2,12,0.3,18c0.3,14.9,0.6,29.7,1,44.6c0.3,11.9,0.5,23.8,0.8,35.7
	c0.3,10.5,0.6,20.9,0.8,31.4c0.2,9.2,0.4,18.4,0.6,27.6c0.2,9.6,0.6,19.2,0.8,28.8c0.3,9.5,0.5,19,0.8,28.5
	c0.4,13.3,0.8,26.7,1.2,40c0.4,12.6,0.7,25.3,1.1,37.9c0.1,2.5,0.3,5.1,0.4,7.8c1.6-0.1,3-0.1,4.4-0.2c15.7-1.7,31.2-3.9,46.7-6.7
	c22.1-4,43.4-10.9,63.7-20.6c26.9-12.9,50.9-30.1,72.4-50.7c27.7-26.4,50.1-56.8,68.3-90.3c11-20.3,20.2-41.3,27.4-63.3
	c0.6-1.7,1.2-3.5,1.7-5.2c0,0-0.1-0.1-0.3-0.5c-0.5,0.8-1,1.5-1.4,2.2c-11.9,20.5-23.8,41.1-35.9,61.5c-7.4,12.4-14.9,24.9-23,36.8
	c-26.7,39.3-61.2,70-103.4,92c-21.1,11-43.2,19.2-66.5,24.1c-14.7,3.1-29.5,4.7-44.5,4c-1,0-1.9-0.1-2.9-0.3c-0.4,0-0.8-0.2-1.3-0.3
	c0-0.9,0-1.9,0-2.9c1.9,0,3.8-0.1,5.6,0c7.8,0.4,15.7,0.1,23.5-0.9c45-5.7,85.1-23.4,121.5-50c30.4-22.3,54.8-50,74.5-82.1
	c19.6-32,38.5-64.5,57-97.3c1.7-3,3.5-5.9,5.3-8.8c1.4-2.3,2.8-4.6,5.4-6c0.6-0.3,1-1.2,1.4-1.9c5.2-7.9,11.3-15.1,19.1-20.7
	c4.7-3.3,9.7-5.8,15.4-7c10.8-2.2,20.3,0.6,28.6,7.6c6.8,5.7,11.5,12.9,14.9,20.9c1.6,3.7,2.7,7.7,4,11.5c0.1,0.3,0.4,0.4,0.5,0.7
	C992.8,580.2,992.8,580.5,992.8,580.8z"/>
<path class="st0" d="M733.5,301.9c-2.4-2.8-5.2-4.4-7.9-6c-6.1-3.6-12.6-6.5-19.3-9.1c-31.5-12.3-64.3-18.5-98-19.9
	c-20.4-0.9-40.7,0.3-60.9,3.6c-15,2.5-29.8,6-44.2,10.9c-45,15.2-83.9,40.2-116.6,74.6c-29.1,30.5-50.1,66-63.6,105.9
	c-6.1,17.9-10.4,36.2-13,55c-1.8,12.4-2.8,24.8-3.1,37.3c-0.3,10.2,0.1,20.5,0.8,30.7c0.8,12.4,2.4,24.7,4.6,36.9
	c4.3,23.5,10.9,46.3,19.7,68.5c8,20.1,18,39.2,30.8,56.8c14.7,20.3,32.4,37.4,53.4,51.2c20.9,13.7,43.6,23,67.7,29.1
	c12.3,3.1,24.8,5.5,37.5,6.8c9.5,0.9,18.9,1.8,28.4,2.2c13.6,0.5,27.2,0.4,40.8-0.4c1.8-0.1,3.6-0.3,5.3-0.5
	c0.6-2.9-0.2-9.8-1.4-12.6c-0.3,0-0.7-0.1-1.1,0c-9.7,1.5-19.4,1.6-29.2,1.2c-14-0.6-27.9-2.3-41.6-5.1c-31.2-6.3-60.7-17.2-88-33.6
	c-24.9-14.9-46.4-33.7-64.4-56.5c-17.9-22.7-31.1-47.9-40.5-75.2c-9-26-14.1-52.8-15.2-80.3c-0.7-16.7,0.2-33.4,2.6-50
	c2.4-16.6,6.2-32.8,11.4-48.7c8.8-26.7,21.1-51.6,36.8-74.8c21.5-31.7,47.8-58.5,79.8-79.7c29.4-19.6,61.8-31.1,96.8-35.3
	c9.6-1.2,19.2-2.1,28.9-2.5c11.3-0.5,22.5-0.5,33.8-0.1c15.1,0.6,30.1,2,45.1,4.2c18.8,2.7,37.5,6.5,56,10.7
	c7.6,1.7,15.1,3.3,22.7,4.8C729.9,302.1,731.5,302.5,733.5,301.9z"/>
<path class="st0" d="M606.8,834.5c0.1-1,0.2-1.7,0.1-2.3c-0.2-6.6-0.4-13.1-0.6-19.7c-0.4-12.7-0.9-25.4-1.2-38.1
	c-0.3-8.9-0.4-17.7-0.6-26.6c-0.4-14.2-0.9-28.4-1.3-42.7c-0.4-12.5-0.7-24.9-1-37.4c-0.3-12.1-0.5-24.3-0.8-36.4
	c-0.1-5.8-0.2-11.7-0.4-17.5c-0.2-9.8-0.6-19.7-0.8-29.5c-0.3-11.4-0.4-22.9-0.7-34.3c-0.2-10.6-0.5-21.3-0.8-31.9
	c-0.1-5.5-0.2-11-0.3-16.5c0-0.8-0.2-1.6-0.4-2.9c-1.1,1.1-1.6,1.9-2.4,2.5c-3,2.6-3.9,5.6-3.7,9.7c0.7,12.2,0.8,24.4,1.1,36.7
	c0.2,9.9,0.4,19.8,0.5,29.7c0.1,10.2,0.2,20.3,0.1,30.5c-0.1,26.7-0.3,53.4-0.5,80.1c-0.1,12.1-0.3,24.1-0.5,36.2
	c-0.3,14.7-0.6,29.4-0.9,44.1c-0.1,4.1-0.2,8.2-0.3,12.2c-0.2,5-0.4,10.1,0.7,15.1c1.3,6.3,2.8,12.6,4.2,18.9c0.3,1.2,0.6,2.4,1,3.9
	c0.9-0.2,1.7-0.3,2.5-0.5c0.8-0.2,1.6-0.5,2.6-0.8c0.5,1.2,0.8,2.1,1.3,3.2c-2,0.6-3.7,1.2-5.4,1.7c0.5,4.4,1,8.6,1.5,13
	C602.2,834.8,604.4,834.7,606.8,834.5z"/>
<path class="st0" d="M721.5,521.8c0.1-0.2,0.1-0.3,0.2-0.5c-0.7-0.3-1.4-0.7-2.1-0.9c-6.3-1.9-12.5-3.9-18.9-5.5
	c-4.8-1.2-9.3-2.7-13.5-5.4c-2.5-1.5-5.2-2.4-8.1-2.8c-4.7-0.7-9.3-1.8-13.8-3.8c-6.3-2.8-12.8-5.1-19.2-7.4
	c-3.1-1.1-6.3-1.8-9.4-2.7c-9.4-2.6-18.7-5.4-27.1-10.6c-0.3-0.2-0.7-0.2-1-0.2c-0.2,1.5-0.2,2.9-0.6,4.1c-0.4,1.2-1.2,2.3-1.8,3.6
	c0.4,0.1,0.7,0.2,0.9,0.2c4.6-0.3,8.8,1.1,12.7,3.4c3.6,2.2,7.4,4.2,11.3,5.9c15.9,6.6,32.2,11.9,49.1,15.4
	c11.5,2.4,23.1,4.2,34.7,6.2C716.9,521.2,719.2,521.5,721.5,521.8z"/>
<path class="st0" d="M603.7,476.6c0.2-0.1,0.4-0.2,0.6-0.3c-0.1-1.7-0.2-3.5-0.4-5.2c-0.7-7.8-1.4-15.6-2.2-23.4
	c-0.5-5.1-1-10.2-2-15.2c-2.7-13.8-5.6-27.6-10.1-40.9c-4.5-13.4-9.6-26.6-14.4-39.9c-0.1-0.4-0.4-0.7-0.7-1.1
	c0.3,3.4,1.1,6.6,1.8,9.9c6,28.2,12,56.4,18,84.6c1.9,9,3.6,18,5.4,27c0.2,0.8,0.5,1.8,1,2.3C601.5,475.4,602.7,475.9,603.7,476.6z"
	/>
<path class="st0" d="M534.4,559.8c0.1,0.1,0.2,0.2,0.2,0.3c0.5-0.4,1-0.7,1.4-1.1c6.2-6.2,12.6-12.3,18.6-18.7
	c10.9-11.5,21.6-23.1,32.4-34.6c1-1.1,1.4-2.2,1.3-3.7c-0.2-2-0.1-4-0.2-6c0-0.8-0.1-1.5-0.2-2.6c-1,0.4-1.7,0.7-2.4,1.1
	c-3,1.7-5.7,3.9-7.7,6.7c-6.2,8.4-12.4,16.8-18.4,25.4c-7.7,11-15.3,22.1-24.2,32.1C534.9,559,534.7,559.4,534.4,559.8z"/>
<path class="st0" d="M598.3,483.9c-0.3-1.5-0.8-3.9-1.2-6.4c-0.2-1-1-1.4-1.8-1.8c-5.7-2.7-11.8-3.7-18.1-4
	c-1.4-0.1-2.5,0.4-3.4,1.4c-2,2.2-1.8,6,0.4,8c3,2.7,6.6,4.5,10.7,4.9c1.3,0.1,2.7,0.2,3.7,0.9c1.8,1.4,3.6,1.3,5.6,0.7
	c0.6-0.2,1.3-0.3,1.9-0.3C598.2,487.1,598.3,487,598.3,483.9z"/>
<path class="st0" d="M598,491c-2.3-0.2-4.3,0.2-6.5,1.1c0.1,2.5,0.2,4.9,0.4,7.4c0.6-0.2,0.8-0.3,1-0.4c1.6-1.7,3.2-3.5,4.8-5.3
	C598.5,493,598.4,492.1,598,491z"/>
<path class="st0" d="M601.9,487.3c1.8-0.6,2.9-2,2.9-3.3c0-1.4-1.7-3.3-3.6-4C601.5,482.4,601.7,484.8,601.9,487.3z"/>
<path class="st1" d="M733.5,301.9c-2,0.6-3.7,0.2-5.3-0.1c-7.6-1.6-15.2-3.1-22.7-4.8c-18.6-4.2-37.2-8-56-10.7
	c-15-2.1-30-3.6-45.1-4.2c-11.3-0.4-22.5-0.4-33.8,0.1c-9.7,0.5-19.3,1.4-28.9,2.5c-35,4.2-67.4,15.7-96.8,35.3
	c-31.9,21.3-58.3,48.1-79.8,79.7c-15.8,23.2-28.1,48.2-36.8,74.8c-5.2,15.9-9,32.1-11.4,48.7c-2.4,16.6-3.3,33.3-2.6,50
	c1.1,27.5,6.3,54.2,15.2,80.3c9.4,27.3,22.6,52.5,40.5,75.2c18,22.8,39.5,41.5,64.4,56.5c27.4,16.4,56.8,27.3,88,33.6
	c13.7,2.8,27.6,4.5,41.6,5.1c9.8,0.4,19.5,0.3,29.2-1.2c0.4-0.1,0.8,0,1.1,0c1.2,2.8,2,9.7,1.4,12.6c-1.7,0.2-3.5,0.4-5.3,0.5
	c-13.6,0.8-27.2,0.9-40.8,0.4c-9.5-0.4-19-1.3-28.4-2.2c-12.7-1.3-25.1-3.6-37.5-6.8c-24.1-6.1-46.9-15.5-67.7-29.1
	c-21-13.7-38.7-30.9-53.4-51.2c-12.8-17.6-22.7-36.7-30.8-56.8c-8.9-22.2-15.5-45-19.7-68.5c-2.2-12.2-3.7-24.5-4.6-36.9
	c-0.7-10.2-1.1-20.4-0.8-30.7c0.4-12.5,1.4-24.9,3.1-37.3c2.7-18.7,7-37.1,13-55c13.5-39.9,34.5-75.4,63.6-105.9
	c32.8-34.4,71.6-59.3,116.6-74.6c14.4-4.9,29.2-8.4,44.2-10.9c20.2-3.4,40.5-4.5,60.9-3.6c33.7,1.5,66.5,7.6,98,19.9
	c6.6,2.6,13.1,5.5,19.3,9.1C728.4,297.5,731.1,299.1,733.5,301.9z"/>
<path class="st1" d="M606.8,834.5c-2.4,0.2-4.6,0.3-6.9,0.5c-0.5-4.4-1-8.6-1.5-13c1.7-0.5,3.4-1.1,5.4-1.7c-0.4-1.1-0.8-2-1.3-3.2
	c-0.9,0.3-1.7,0.6-2.6,0.8c-0.8,0.2-1.5,0.3-2.5,0.5c-0.4-1.4-0.7-2.6-1-3.9c-1.4-6.3-2.9-12.6-4.2-18.9c-1-5-0.8-10-0.7-15.1
	c0.2-4.1,0.2-8.1,0.3-12.2c0.3-14.7,0.7-29.4,0.9-44.1c0.2-12.1,0.4-24.1,0.5-36.2c0.2-26.7,0.4-53.4,0.5-80.1
	c0-10.2,0-20.3-0.1-30.5c-0.1-9.9-0.3-19.8-0.5-29.7c-0.3-12.2-0.4-24.5-1.1-36.7c-0.2-4.1,0.7-7.1,3.7-9.7c0.7-0.6,1.3-1.4,2.4-2.5
	c0.2,1.3,0.4,2.1,0.4,2.9c0.1,5.5,0.2,11,0.3,16.5c0.3,10.6,0.6,21.3,0.8,31.9c0.2,11.4,0.4,22.9,0.7,34.3
	c0.2,9.8,0.5,19.7,0.8,29.5c0.1,5.8,0.2,11.7,0.4,17.5c0.3,12.1,0.5,24.3,0.8,36.4c0.3,12.5,0.6,24.9,1,37.4
	c0.4,14.2,0.9,28.4,1.3,42.7c0.3,8.9,0.4,17.7,0.6,26.6c0.4,12.7,0.8,25.4,1.2,38.1c0.2,6.6,0.4,13.1,0.6,19.7
	C607,832.8,606.9,833.5,606.8,834.5z"/>
<path class="st1" d="M721.5,521.8c-2.3-0.3-4.5-0.6-6.8-1c-11.6-2-23.2-3.9-34.7-6.2c-16.9-3.5-33.2-8.8-49.1-15.4
	c-3.9-1.6-7.6-3.7-11.3-5.9c-4-2.3-8.1-3.7-12.7-3.4c-0.2,0-0.5-0.1-0.9-0.2c0.7-1.2,1.4-2.3,1.8-3.6c0.4-1.3,0.4-2.7,0.6-4.1
	c0.3,0.1,0.7,0.1,1,0.2c8.4,5.2,17.7,8,27.1,10.6c3.2,0.9,6.4,1.6,9.4,2.7c6.5,2.3,12.9,4.7,19.2,7.4c4.5,2,9.1,3.1,13.8,3.8
	c2.9,0.4,5.6,1.3,8.1,2.8c4.2,2.6,8.7,4.2,13.5,5.4c6.3,1.6,12.6,3.6,18.9,5.5c0.7,0.2,1.4,0.6,2.1,0.9
	C721.6,521.5,721.5,521.6,721.5,521.8z"/>
<path class="st1" d="M603.7,476.6c-1-0.7-2.2-1.3-3.1-2.2c-0.6-0.6-0.9-1.5-1-2.3c-1.8-9-3.5-18-5.4-27c-5.9-28.2-12-56.4-18-84.6
	c-0.7-3.3-1.4-6.5-1.8-9.9c0.2,0.4,0.5,0.7,0.7,1.1c4.8,13.3,9.9,26.5,14.4,39.9c4.5,13.3,7.4,27.1,10.1,40.9c1,5,1.4,10.1,2,15.2
	c0.8,7.8,1.5,15.6,2.2,23.4c0.2,1.7,0.3,3.5,0.4,5.2C604.1,476.4,603.9,476.5,603.7,476.6z"/>
<path class="st1" d="M534.4,559.8c0.2-0.4,0.5-0.8,0.7-1.1c8.9-10.1,16.5-21.2,24.2-32.1c6-8.6,12.3-17,18.4-25.4
	c2.1-2.8,4.7-5,7.7-6.7c0.7-0.4,1.4-0.6,2.4-1.1c0.1,1.1,0.2,1.9,0.2,2.6c0.1,2,0,4,0.2,6c0.2,1.5-0.2,2.6-1.3,3.7
	c-10.8,11.5-21.5,23.2-32.4,34.6c-6.1,6.4-12.4,12.5-18.6,18.7c-0.4,0.4-0.9,0.7-1.4,1.1C534.6,559.9,534.5,559.9,534.4,559.8z"/>
<path class="st1" d="M598.3,483.9c0,3.1-0.1,3.2-2.2,3.5c-0.6,0.1-1.3,0.2-1.9,0.3c-2,0.5-3.8,0.6-5.6-0.7c-0.9-0.7-2.4-0.7-3.7-0.9
	c-4.1-0.4-7.7-2.1-10.7-4.9c-2.2-2-2.4-5.8-0.4-8c0.9-1,2-1.5,3.4-1.4c6.3,0.3,12.4,1.3,18.1,4c0.8,0.4,1.6,0.7,1.8,1.8
	C597.5,480,598,482.4,598.3,483.9z"/>
<path class="st1" d="M598,491c0.4,1.2,0.4,2.1-0.3,2.9c-1.6,1.8-3.2,3.5-4.8,5.3c-0.1,0.1-0.4,0.2-1,0.4c-0.1-2.6-0.2-5-0.4-7.4
	C593.7,491.2,595.7,490.7,598,491z"/>
<path class="st1" d="M601.9,487.3c-0.2-2.5-0.4-4.8-0.7-7.3c2,0.7,3.6,2.6,3.6,4C604.9,485.2,603.7,486.7,601.9,487.3z"/>
</svg>
