<?xml version="1.0" encoding="utf-8"?>
<!-- Generator: Adobe Illustrator 28.0.0, SVG Export Plug-In . SVG Version: 6.00 Build 0)  -->
<svg version="1.1" id="Ñëîé_2" xmlns="http://www.w3.org/2000/svg" xmlns:xlink="http://www.w3.org/1999/xlink" x="0px" y="0px"
	 viewBox="0 0 1083.43 602.95" style="enable-background:new 0 0 1083.43 602.95;" xml:space="preserve">
<style type="text/css">
	.st0{fill:#EB0337;}
</style>
<g>
	<g>
		<path class="st0" d="M547.93,506.94c-0.84,0-1.46-0.78-1.86-1.39c-4.03-6.03-12.98-39.65-2.36-68.39
			c-2.49-4.77-5.71-9.13-9.85-12.7c-7.85-6.74-23.12-13.74-51.26-8.78c-27.48,4.84-47.24,22.39-57.85,31.81
			c-5.78,5.14-8.18,7.26-9.75,5.87c-2-1.77,1.4-6.27,11.54-19.04c6.81-8.58,15.57-19.61,22.71-30.87
			c-28.92-4.09-54.94-11.01-81.8-18.15c-39.24-10.43-79.81-21.22-131.79-22.85c-28.99-0.91-58.67,1.24-88.24,6.38l-0.32-1.86
			c29.69-5.17,59.51-7.32,88.62-6.41c52.19,1.64,92.87,12.45,132.21,22.91c27.05,7.19,53.26,14.16,82.41,18.21
			c9.08-14.72,15.07-29.65,10.05-39.86c-3.67-7.47-13.3-12.72-28.63-15.61c-15.21,7.4-31.58,8.73-43.13,8.45
			c-14.09-0.34-26.11-3.26-29.37-5.24c-0.32-0.19-1.17-0.71-1.13-1.56c0.04-0.82,0.55-1.66,6.24-2.83
			c11.41-2.35,42.7-5.32,67.2-0.83c1.39-0.7,2.76-1.44,4.12-2.24c8.02-4.72,26.77-17.61,27.81-35.22
			c1.56-26.66-37.56-51.21-56.36-63.01c-8.89-5.58-10.54-6.68-9.69-8.1c0.88-1.47,2.6-0.58,14.13,6.29
			c21.26,12.66,65.5,38.99,85.09,25.54c6.05-4.15,10.01-12.28,11.77-24.16c0.08-0.57,0.16-1.14,0.24-1.71
			c-5.53-10.34-8.08-22.14-9.23-31.8c-2.02-17.01-0.38-32.53,0.89-36.7c0.16-0.51,0.45-1.47,1.29-1.52c0.89-0.06,1.34,0.8,2.02,2.76
			c1.95,5.63,6.55,25,7.54,45.88c0.31,6.61,0.27,13.95-0.59,21c3.08,5.61,7.07,10.72,12.23,14.72c8.82,6.83,20.29,10.01,34.08,9.44
			c37.41-1.54,67.08-38.83,78.24-52.87c3.88-4.88,4.64-5.76,5.48-5.85c0.3-0.04,0.58,0.05,0.8,0.23c1.17,0.94,0.64,1.76-8,12.52
			c-15.38,19.15-47.38,58.99-37.77,74.7c9.17,15.01,55.28,5.5,77.44,0.93c12.42-2.56,14.02-2.83,14.35-1.3
			c0.33,1.52-0.88,1.95-16.12,5.66c-22.21,5.41-63.55,15.47-63.96,27.36c-0.19,5.38,8.4,11.63,25.52,18.56
			c15.1,6.11,34.31,11.75,49.74,16.28c24.36,7.15,29.99,9.07,29.45,11.59c-0.48,2.22-4.38,1.85-22.37-0.83
			c-28.1-4.2-75.12-11.22-85.03,6.24c-1.53,2.69-2.08,5.84-1.89,9.3c32.21-9.84,63.88-3.14,99.68,4.44
			c35.51,7.52,75.76,16.04,124.86,9.92c25.28-3.15,50.29-9.83,74.31-19.85l0.73,1.74c-24.18,10.09-49.35,16.81-74.8,19.98
			c-49.42,6.16-89.83-2.39-125.49-9.94c-35.66-7.55-67.19-14.22-99.11-4.36c1.69,13.42,13.23,30.7,21.53,43.13
			c7.9,11.83,11.29,17.15,8.87,19.15c-2.01,1.66-5.15-1.27-11.42-7.12c-8.49-7.92-21.31-19.89-39.71-28.74
			c-5.86-2.82-11.33-4.84-16.47-6.31c-10.29,8.76-15.36,17.13-17.44,21.28c-0.97,1.93-1.83,3.89-2.59,5.87
			c4.8,9.6,6.78,20.51,7.53,29.34c1.41,16.59-0.95,31.52-2.77,37.03c-0.78,2.37-1.52,3.41-2.48,3.48
			C547.99,506.93,547.96,506.94,547.93,506.94z M544.86,439.52c-4.92,14.34-4.83,29.14-3.69,39.77c1.52,14.18,5.2,23.87,6.71,25.58
			c1.19-1.8,3.61-11.25,3.91-25.33C552.01,469.28,551.12,453.09,544.86,439.52z M451.25,403.74c-7.26,11.62-16.27,22.96-23.26,31.77
			c-5.33,6.71-11.34,14.28-11.67,16.32c1.16-0.41,4.2-3.11,7.16-5.74c10.75-9.55,30.77-27.32,58.78-32.26
			c28.87-5.09,44.66,2.2,52.82,9.21c3.93,3.38,7.04,7.45,9.51,11.86c0.63-1.53,1.31-3.04,2.06-4.53
			c2.07-4.13,7.03-12.34,16.93-21.03c-11.15-2.89-20.77-3.21-29.61-3.41c-3.23,0.28-6.44,0.49-9.6,0.66
			C497.18,408.08,473.35,406.75,451.25,403.74z M567.53,408.48c4.87,1.46,10.03,3.42,15.53,6.07c18.66,8.97,32.13,21.54,40.18,29.06
			c3.26,3.04,8.19,7.65,8.93,7.04c0.01-0.01,0.63-0.59-1.71-4.83c-1.7-3.08-4.4-7.12-7.53-11.81
			c-8.79-13.17-19.99-29.95-21.83-43.58c-5.06,1.66-10.12,3.75-15.22,6.32C578.51,400.46,572.47,404.49,567.53,408.48z
			 M545.51,404.52c6.1,0.45,12.64,1.36,19.81,3.32c5.22-4.35,11.7-8.76,19.69-12.79c5.32-2.68,10.61-4.85,15.87-6.57
			c-0.27-3.98,0.33-7.65,2.14-10.83c10.55-18.58,58.38-11.44,86.95-7.17c8.61,1.29,17.48,2.61,19.9,2.2
			c-2.48-1.86-15.33-5.63-27.79-9.29c-32.54-9.55-77.1-22.62-76.61-36.71c0.46-13.33,41.11-23.22,65.4-29.13
			c1.24-0.3,2.48-0.6,3.67-0.9c-0.35,0.07-0.71,0.15-1.06,0.22c-24.32,5.01-69.57,14.35-79.44-1.79
			c-8.41-13.76,10.97-42.33,27.54-63.77c-15.13,16.07-37.86,34.85-64.6,35.95c-14.24,0.59-26.13-2.72-35.31-9.83
			c-4.73-3.66-8.49-8.2-11.5-13.18c-1.65,10.43-5.28,19.86-12.45,24.78c-8.94,6.13-23.49,5.26-43.25-2.6
			c-16.35-6.5-32.91-16.36-43.87-22.88c-1.4-0.83-2.78-1.66-4.09-2.42c0.53,0.33,1.07,0.67,1.61,1.01
			c19.11,11.99,58.87,36.94,57.24,64.72c-1.09,18.52-20.46,31.86-28.73,36.74c-0.7,0.42-1.41,0.82-2.13,1.2
			c12.83,2.74,23.38,7.73,27.55,16.2c5.28,10.74-0.63,25.99-9.73,40.96c19.9,2.66,41.21,3.96,65.12,3.04
			c-7.88-1.04-15.46-3.44-23.4-9.43c-10.81-8.15-19.7-21-24.39-35.27c-5.16-15.68-4.82-31.84,0.96-45.52
			c6.97-16.49,22.18-30.27,40.69-36.86c18.29-6.52,37.17-5.46,53.14,2.99c16.14,8.53,27.32,23.98,31.47,43.48
			c4.57,21.49-0.02,45.69-11.42,60.21C574.88,396.88,560.54,402.08,545.51,404.52z M535.09,275.61c-7.63,0-15.44,1.36-23.14,4.11
			c-18.02,6.42-32.81,19.81-39.58,35.82c-12.15,28.73,2.39,63.14,22.83,78.55c12.43,9.37,24.13,9.63,37.67,9.93
			c0.35,0.01,0.69,0.01,1.04,0.02c18.51-1.63,37.51-5.79,49.12-20.58c11.07-14.11,15.51-37.67,11.05-58.65
			c-4.03-18.95-14.86-33.94-30.5-42.21C554.79,277.95,545.09,275.61,535.09,275.61z M360.5,348c5.09,2.63,38.8,10.62,68-2.33
			C400.77,341.27,366.03,345.64,360.5,348z M501.84,174.86c-0.96,4.62-2.25,17.72-0.76,32.52c0.95,9.38,3.13,20.72,7.96,30.82
			C511.29,213.17,504.41,182.33,501.84,174.86z"/>
	</g>
</g>
</svg>
